<svg xmlns="http://www.w3.org/2000/svg" width="48" height="48" viewBox="0 0 48 48" fill="none">
  <!-- Sun rays -->
  <g stroke="#F59E0B" stroke-width="2.5" stroke-linecap="round">
    <line x1="18" y1="4" x2="18" y2="9"/>
    <line x1="6.2" y1="8.2" x2="9.6" y2="11.6"/>
    <line x1="1" y1="20" x2="6" y2="20"/>
    <line x1="6.2" y1="31.8" x2="9.6" y2="28.4"/>
    <line x1="29.8" y1="8.2" x2="26.4" y2="11.6"/>
  </g>
  <!-- Sun body -->
  <circle cx="18" cy="20" r="9" fill="#FBBF24"/>
  <!-- Cloud -->
  <path d="M20 38H38a8 8 0 0 0 .5-16h-.1A11 11 0 0 0 17.5 24a8 8 0 0 0 2.5 14z" fill="#60A5FA"/>
  <path d="M20 38H38a8 8 0 0 0 .5-16h-.1A11 11 0 0 0 17.5 24a8 8 0 0 0 2.5 14z" fill="white" opacity="0.3"/>
</svg>